inDegrees=no
num_controls=7
num_derivatives=13
num_iterations=149
num_multipliers=7
num_parameters=0
num_slacks=7
num_states=26
objective=5.455069
objective_accelerations=0.534666
objective_balance=0.005205
objective_effort=0.427326
objective_height=4.418321
objective_ligament=0.069551
solver_duration=1283.547653
status=Solve_Succeeded
success=true
DataType=double
version=3
OpenSimVersion=4.4-2022-07-23-0e9fedc
endheader
time	/jointset/ground_pelvis/pelvis_tilt/value	/jointset/ground_pelvis/pelvis_tx/value	/jointset/ground_pelvis/pelvis_ty/value	/jointset/hip_r/hip_flexion_r/value	/jointset/hip_r/hip_adduction_r/value	/jointset/hip_r/hip_rotation_r/value	/jointset/back/lumbar_extension/value	/jointset/patellofemoral_r/patellar_flexion_r/value	/jointset/knee_r/knee_flexion_r/value	/jointset/knee_r/knee_adduction_r/value	/jointset/knee_r/knee_rotation_r/value	/jointset/ankle_r/ankle_angle_r/value	/jointset/subtalar_r/subtalar_angle_r/value	/jointset/ground_pelvis/pelvis_tilt/speed	/jointset/ground_pelvis/pelvis_tx/speed	/jointset/ground_pelvis/pelvis_ty/speed	/jointset/hip_r/hip_flexion_r/speed	/jointset/hip_r/hip_adduction_r/speed	/jointset/hip_r/hip_rotation_r/speed	/jointset/back/lumbar_extension/speed	/jointset/patellofemoral_r/patellar_flexion_r/speed	/jointset/knee_r/knee_flexion_r/speed	/jointset/knee_r/knee_adduction_r/speed	/jointset/knee_r/knee_rotation_r/speed	/jointset/ankle_r/ankle_angle_r/speed	/jointset/subtalar_r/subtalar_angle_r/speed	/forceset/tau_hip_flexion_r	/forceset/tau_hip_adduction_r	/forceset/tau_hip_rotation_r	/forceset/tau_knee_flexion_r	/forceset/tau_ankle_angle_r	/forceset/tau_subtalar_angle_r	/forceset/tau_lumbar_extension	lambda_cid13_p0	lambda_cid14_p0	lambda_cid14_p1	lambda_cid14_p2	lambda_cid14_p3	lambda_cid14_p4	lambda_cid14_p5	/jointset/ground_pelvis/pelvis_tilt/accel	/jointset/ground_pelvis/pelvis_tx/accel	/jointset/ground_pelvis/pelvis_ty/accel	/jointset/hip_r/hip_flexion_r/accel	/jointset/hip_r/hip_adduction_r/accel	/jointset/hip_r/hip_rotation_r/accel	/jointset/back/lumbar_extension/accel	/jointset/patellofemoral_r/patellar_flexion_r/accel	/jointset/knee_r/knee_flexion_r/accel	/jointset/knee_r/knee_adduction_r/accel	/jointset/knee_r/knee_rotation_r/accel	/jointset/ankle_r/ankle_angle_r/accel	/jointset/subtalar_r/subtalar_angle_r/accel	gamma_cid13_p0	gamma_cid14_p0	gamma_cid14_p1	gamma_cid14_p2	gamma_cid14_p3	gamma_cid14_p4	gamma_cid14_p5
0.5	-0.1095563221137086	0.02888471468127106	0.818239797674944	0.8339196077677463	-0.2160442110167334	-0.1450987641629306	-0.6428661912852133	0.9172076612489557	0.9172076612489531	-0.06703782597423891	0.1745315000365513	0.287681619455984	0.1467263056984774	-0.3003367947526441	-0.1923732940012552	-0.4568050321571197	1.709368448133882	-0.03390350374948981	0.1752866607945414	-0.739393479033711	1.838647871970894	1.83864787197092	-0.4062112459551833	0.0002094320364218823	0.5272682395863845	0.1613264617123134	-0.1801766543801206	0.0005579068072195552	0.0172467905924307	-0.2928548310095048	0.009085607097494258	0.003924288249647954	0.2300776701669267	-10.60331426390692	-39.46643351227617	-3.836627268338677	-0.5305198699058494	-4.078824612559021	-642.8085875419591	68.26922464116625	0.2938759646040717	0.5547255367472302	-0.3842409959786027	-1.204725671956876	-0.1647304569049719	-0.5315713076983375	1.729502433148537	-1.235745263086983	-1.235745263086976	0.3724284928401595	-0.04236890485569987	-0.4566885406847253	-0.2755069253605766	-7.529989391057622e-08	-1.084130212642758e-08	8.438157128836044e-07	-3.726606916128174e-07	-8.713577040948157e-08	-1.173478882148716e-07	6.039574853882408e-07
0.51	-0.1125444795677231	0.026988934366666	0.8136535495153807	0.8509505656194131	-0.2163918851511299	-0.1433732492918249	-0.6501727745997655	0.9355296814190538	0.9355296814190213	-0.07108057337238191	0.1745328218953739	0.2929305470700462	0.1483247147535548	-0.2972458454415531	-0.186761623992507	-0.4603428125829576	1.696585377928366	-0.03563873457191614	0.1698542994024825	-0.7218306034966163	1.825513183688723	1.825513183688744	-0.4022476477209019	6.007697503219389e-05	0.522443609400824	0.1583007746252232	-0.1859185059642461	0.0008761514488488365	0.0176635587641883	-0.2977677258133112	0.008401967685117655	0.004598564905981812	0.235615322653119	-9.644122550249303	-39.93837677148229	-3.759418098828509	-0.390916788511157	-4.143103305776839	-647.2972819280749	68.98662110590503	0.324037026459649	0.5675309095092218	-0.3232957762811125	-1.350753750339397	-0.1789543965169868	-0.5434540413151896	1.783567170986582	-1.388764797680121	-1.388764797680971	0.4220658637883928	-0.0004063552105070529	-0.5064353754803425	-0.3241034952885297	-6.185411946872756e-08	5.456969809661525e-08	1.214372536129961e-06	1.537558844306757e-07	-1.585673988861752e-07	-8.523253876031072e-08	8.152092203592334e-07
0.52	-0.115500261006206	0.02514989938746255	0.8090349737094799	0.8678465615579269	-0.2167571185940721	-0.141700935131912	-0.6573009517475473	0.9537130678689503	0.9537130678688884	-0.07508093671316854	0.1745328126938786	0.2981290113586552	0.1498912661587802	-0.2938615916465429	-0.1810242269209337	-0.463270561424585	1.68237606550323	-0.03741536545856181	0.1646465185562009	-0.7037122456796553	1.810921127930634	1.810921127930649	-0.3977344344839683	-5.678002355100415e-05	0.517175574495719	0.15495493174192	-0.1916603575483743	0.001194396090470584	0.01808032693593572	-0.3026806206171179	0.007718328272739695	0.00527284156230395	0.2411529751393097	-8.696966777073014	-40.41097638836037	-3.676703322496121	-0.2586107938980862	-4.230079718301238	-651.8134833556031	69.73586721722877	0.3525368613879211	0.5798709493122527	-0.2622346791365064	-1.489974115880981	-0.1730104697488505	-0.4866551985429114	1.840598889121822	-1.527218758270547	-1.52721875827052	0.4823514933706256	-0.03586929229435688	-0.5453694845936212	-0.33953808460318	-5.987143272221663e-08	8.034978434715306e-08	1.41559357668284e-06	3.339100268807946e-07	-1.903982560361531e-07	-8.281030083635585e-08	9.613049456181918e-07
0.53	-0.1184207007885525	0.02336875339754494	0.8043902181442443	0.884593412372902	-0.2171401545506198	-0.1400805636274831	-0.6642454043523333	0.9717431632083455	0.9717431632083464	-0.07903448523696957	0.1745322766104711	0.3032725707259608	0.1514229995195958	-0.2901788247119874	-0.1751945536332618	-0.4655756064795669	1.666769892490228	-0.03918331066466322	0.1594453371415684	-0.6851014638885711	1.794858583013676	1.794858583013707	-0.3929288134790776	-5.01682404567327e-05	0.5114628323963641	0.1513597764694513	-0.1974342362501864	0.001921605294483753	0.01840189790646169	-0.3073412500525461	0.006526626944796856	0.005736372409483119	0.2466412751481993	-7.797297641093178	-41.07413311218454	-3.7265191741345	-0.09645157203531718	-4.065451787618273	-656.3780649541744	70.18903763351187	0.383290265579029	0.5860367094256352	-0.198913954843696	-1.629555454381413	-0.1772613525927749	-0.5342877670115439	1.882839532425041	-1.68166413257426	-1.681664132571983	0.4868420616618081	0.0190938123110489	-0.5952908360636978	-0.3740097763604915	-5.480822751553071e-08	9.617225877488925e-08	1.488824543772497e-06	4.391687793922656e-07	-2.05296969703992e-07	-7.845042169476134e-08	1.028876640187388e-06
0.54	-0.1213028841703346	0.02164620837869023	0.799725557221226	0.9011774781456733	-0.2175405849205394	-0.1385116915680185	-0.6710014447975434	0.9896054547437373	0.989605454743802	-0.0829385426191989	0.1745318401243223	0.3083567898195814	0.1529178802221282	-0.2862103115338472	-0.1693040327083509	-0.4672516329811245	1.64981905706236	-0.0408942481328439	0.1543466295634098	-0.6660298137645545	1.777360367130083	1.777360367130129	-0.3878362061696458	-3.686050937122015e-05	0.505307519758719	0.1475844000853105	-0.2032081149519996	0.002648814498493058	0.01872346887696569	-0.3120018794879758	0.005334925616853723	0.006199903256656612	0.2521295751570882	-6.950722972490285	-41.73584267001267	-3.769262151399639	0.05679158432035349	-3.928283914653604	-660.9405485824946	70.66561696544493	0.409686110104869	0.592040476760078	-0.1364309684516507	-1.758906598854326	-0.161608922164749	-0.4661604312482162	1.932772555708255	-1.814352951597624	-1.814352951597634	0.539748754278858	-0.03453010269597039	-0.6338835922516465	-0.375582306937673	-4.63367891188639e-08	1.009778009731427e-07	1.420449472136886e-06	4.615645472907634e-07	-2.014622480298894e-07	-7.19467692910974e-08	1.009570683780677e-06
0.55	-0.1241440505028821	0.01998283066482767	0.7950473126129299	0.9175854340608548	-0.2179578142154615	-0.1369931235362195	-0.6775645718625363	1.00728566351893	1.007285663518885	-0.08679017584977318	0.1745314505111714	0.3133772936277132	0.1543741386258886	-0.2819804408461175	-0.1633648224203927	-0.4682881566794826	1.631551138986469	-0.04254433525589185	0.1493944457624586	-0.6465343314334145	1.758445799971158	1.758445799971178	-0.3824288819003355	-3.772251855174439e-05	0.4987232359886194	0.1436329058426507	-0.2087407465011359	0.003225629324009124	0.01901770844073041	-0.3169681992515438	0.004378193609074869	0.006627644274387069	0.2574086398935026	-6.157679914740783	-42.33145540990758	-3.816071305876717	0.2107912633631936	-3.795050922509491	-665.5773709598402	71.18287246681439	0.4360283891752173	0.5958245772631303	-0.0709069505977135	-1.893867095713744	-0.1654779222588559	-0.5056815436721011	1.967126241888026	-1.965338445331995	-1.965338445335808	0.5506399079495258	0.01777268301638977	-0.681239638521303	-0.4098166507408865	-3.86501217220667e-08	1.057269811341497e-07	1.358330488802715e-06	4.817650583776612e-07	-1.983927454957975e-07	-6.480237571657709e-08	9.938289349441233e-07
0.5600000000000001	-0.1269416399603381	0.01837903770833457	0.7903619739916363	0.9338040842585263	-0.2183912982445917	-0.1355232641802585	-0.6839309060702032	1.024769660653068	1.024769660652925	-0.09058585270871658	0.1745311796646384	0.3183298468243174	0.1557899053536602	-0.2774949365156614	-0.1573870812344569	-0.4686704355806192	1.611957913560288	-0.04414519497430376	0.1446048943953659	-0.6266712422994277	1.738118038920554	1.73811803892055	-0.3766449318433285	-1.310720591342885e-05	0.4917173974532335	0.1394860648875606	-0.2142733780502716	0.003802444149531638	0.01931194800451582	-0.3219345190151094	0.00342146160129782	0.007055385292128098	0.2626877046299169	-5.418137762741129	-42.92618478350803	-3.856069348190537	0.3561029342436452	-3.690259751778949	-670.2233230006025	71.72151393941627	0.4608128386501281	0.5997466563556	-0.005582009007332218	-2.023968068912232	-0.1517634412375151	-0.4336339444764749	2.006293916277645	-2.096991729933233	-2.096991729933222	0.6150739118182192	-0.02943463833228061	-0.7181945453088942	-0.4146516494237063	-3.190517952511298e-08	1.104085268504612e-07	1.303718811430275e-06	4.993312612906385e-07	-1.962415059297182e-07	-5.688909273702912e-08	9.823642351917597e-07
0.5700000000000001	-0.1296931723099857	0.01683514828748178	0.7856760773072287	0.9498203843779762	-0.2188404644632933	-0.1341003812248933	-0.6900968943133495	1.042043494537332	1.042043494537217	-0.09432192183861353	0.1745311192217681	0.3232103156582087	0.1571633635733101	-0.272772086917257	-0.1513903379028785	-0.4683993406526593	1.591093032577135	-0.04567538870957778	0.1400044425627534	-0.6064822154930636	1.716426384223678	1.716426384223666	-0.3705112733816627	-9.832690783338473e-07	0.4843125655529503	0.1351809633342221	-0.2196053193498003	0.004358272093833271	0.01954277842789629	-0.3269011771852464	0.00237773934254893	0.007450238470521666	0.2677407744038349	-4.73172878024837	-43.54914657066512	-3.911575542558963	0.4996386172745004	-3.490778030667257	-674.7816855673769	72.2277050219747	0.4839526724703017	0.5996689216296908	0.05987885835601701	-2.14909326070971	-0.1516162072783305	-0.4683798954573887	2.031835688321437	-2.23859977786091	-2.238599777861944	0.6213164645804079	0.01637882579202947	-0.7612306990858418	-0.4418725148903789	-2.56726750183911e-08	1.140996093256947e-07	1.245503807366076e-06	5.112552122869044e-07	-1.933690458957164e-07	-4.88875306225518e-08	9.662899377994883e-07
0.58	-0.1323962898332417	0.01535123244995891	0.7809961762950324	0.9656217666580561	-0.2193045263928693	-0.1327225286064147	-0.6960596665633312	1.059093742386967	1.059093742386882	-0.09799489345364512	0.1745311486014676	0.3280148155357577	0.1584930841561063	-0.2678119712374663	-0.1453923645684713	-0.4674713011383511	1.568974345686267	-0.04712433714909178	0.1355988270179907	-0.5860280436664742	1.693400831994959	1.693400831994941	-0.3640254288704106	4.857311783070455e-06	0.4765236061847554	0.1307385375168244	-0.22493726064933	0.004914100038133984	0.01977360885127015	-0.3318678353553836	0.00133401708380032	0.007845091648914122	0.2727938441777519	-4.097849637401023	-44.1720806947399	-3.960697088931577	0.6348703896172546	-3.318915026560878	-679.3631420766775	72.75363195469934	0.5082660549273724	0.5999926569213309	0.1258069082623076	-2.274729250455332	-0.1355143820855308	-0.394666686906524	2.059322920322687	-2.363771236301663	-2.363771236301799	0.6855111217355002	-0.03069130952697367	-0.7950200388912371	-0.4421165022355666	-2.010753122452933e-08	1.165007861846406e-07	1.182596098773078e-06	5.158311142753599e-07	-1.895573219965131e-07	-4.077100033235264e-08	9.44212443480826e-07
0.59	-0.1350487048537121	0.01392725040456637	0.7763288127153247	0.9811959194429638	-0.2197826084684663	-0.1313877746935623	-0.7018166715400771	1.07590727474581	1.075907274745746	-0.1016014322457591	0.1745311274741688	0.3327396170483435	0.1597778287936486	-0.2626344144015092	-0.1394083414689607	-0.4658933357176368	1.545659539726118	-0.04847594779901437	0.1313734092699042	-0.5653450087547108	1.669098649626966	1.669098649626932	-0.357240316426775	-5.646763191191608e-06	0.468382191580916	0.1261950303320949	-0.230008613970367	0.005461567095859615	0.01993885896523685	-0.3368253015908915	0.0003003942342768337	0.008190006895914075	0.2775689219885122	-3.515628975145409	-44.78688077023149	-4.030505334279491	0.7738819996011576	-3.089433579028773	-683.766003060466	73.22275697382949	0.5280081904824639	0.5969251277895766	0.1899960186378779	-2.38934008315468	-0.132442938440701	-0.4332906546316677	2.076985215789451	-2.494486889622098	-2.49448688962437	0.6814529631369045	0.01442942814869167	-0.8319050073581534	-0.4625315329743248	-1.497122294040103e-08	1.180146245401985e-07	1.119106361751443e-06	5.150547180200597e-07	-1.850939672924978e-07	-3.35259411934299e-08	9.204048301219604e-07
